<svg width="20" height="21" viewBox="0 0 20 21" fill="none" xmlns="http://www.w3.org/2000/svg">
<g clip-path="url(#clip0_138_3297)">
<path d="M19.5838 5.5695C19.4706 5.16552 19.25 4.79978 18.9455 4.51116C18.6324 4.21367 18.2487 4.00086 17.8305 3.89283C16.2655 3.48033 9.99551 3.48033 9.99551 3.48033C7.38162 3.45059 4.76837 3.58139 2.17051 3.872C1.75234 3.98801 1.36932 4.20557 1.05551 4.50533C0.747181 4.802 0.523848 5.16783 0.407181 5.56866C0.126925 7.07845 -0.00924233 8.61145 0.000514319 10.147C-0.00948568 11.6812 0.126348 13.2137 0.407181 14.7253C0.521348 15.1245 0.743848 15.4887 1.05301 15.7828C1.36218 16.077 1.74718 16.2895 2.17051 16.402C3.75635 16.8137 9.99551 16.8137 9.99551 16.8137C12.6127 16.8434 15.2293 16.7126 17.8305 16.422C18.2487 16.314 18.6324 16.1012 18.9455 15.8037C19.2499 15.5151 19.4702 15.1493 19.583 14.7453C19.8706 13.2361 20.0104 11.7025 20.0005 10.1662C20.0221 8.62333 19.8825 7.08247 19.5838 5.56866V5.5695ZM8.00218 13.0003V7.2945L13.2188 10.1478L8.00218 13.0003Z" fill="#112211"/>
</g>
<defs>
<clipPath id="clip0_138_3297">
<rect width="20" height="20" fill="white" transform="translate(0 0.147095)"/>
</clipPath>
</defs>
</svg>
