<svg width="17" height="16" viewBox="0 0 17 16" fill="none" xmlns="http://www.w3.org/2000/svg">
<path d="M14.4925 1.07162L14.4925 1.07164L1.99156 5.8032L1.98327 5.80634V5.80546C1.84617 5.85957 1.72872 5.95412 1.64657 6.07661C1.56324 6.20086 1.5203 6.34781 1.52362 6.49737C1.52693 6.64694 1.57633 6.79184 1.66507 6.91228C1.75378 7.03267 1.87747 7.12275 2.01927 7.17024C2.01933 7.17026 2.01939 7.17028 2.01945 7.1703L2.03191 7.17425L2.03408 7.17494L2.03403 7.17504L6.32347 9.00672C6.40288 9.0306 6.48716 9.03334 6.56797 9.01467C6.64919 8.99591 6.72406 8.95617 6.78512 8.89942L13.6708 2.48346C13.6709 2.48336 13.671 2.48326 13.6711 2.48316C13.6937 2.4606 13.7205 2.4427 13.75 2.43048C13.7797 2.41819 13.8115 2.41187 13.8436 2.41187C13.8757 2.41187 13.9075 2.41819 13.9371 2.43048C13.9668 2.44276 13.9937 2.46076 14.0164 2.48346C14.0391 2.50615 14.0571 2.5331 14.0694 2.56275C14.0817 2.5924 14.088 2.62418 14.088 2.65628C14.088 2.68838 14.0817 2.72016 14.0694 2.74981C14.0572 2.77934 14.0393 2.80617 14.0167 2.82881C14.0166 2.82891 14.0165 2.829 14.0164 2.8291L7.60012 9.71161L14.4925 1.07162ZM14.4925 1.07162C14.6235 1.02184 14.766 1.01095 14.9029 1.04027C15.0399 1.0696 15.1654 1.13787 15.2645 1.23688M14.4925 1.07162L15.2645 1.23688M15.2645 1.23688C15.3636 1.33635 15.4317 1.4624 15.4607 1.59977C15.4896 1.73715 15.4781 1.87998 15.4276 2.01097L15.4276 2.01111L10.6968 14.5082L15.2645 1.23688ZM9.96858 15H9.99983C10.1543 15.0009 10.3054 14.9553 10.4336 14.8691C10.5618 14.783 10.6611 14.6603 10.7186 14.5169L10.6967 14.5086L10.6967 14.5084C10.641 14.6473 10.5447 14.7662 10.4205 14.8497C10.2962 14.9332 10.1497 14.9774 9.99996 14.9766H9.99983H9.9691M9.96858 15L9.96963 14.9766C9.96945 14.9766 9.96928 14.9766 9.9691 14.9766M9.96858 15V14.9766H9.9691M9.96858 15C9.66264 14.9863 9.40952 14.7819 9.30952 14.4922C9.30733 14.4863 9.30545 14.4807 9.30358 14.4744L7.47077 10.1813M9.9691 14.9766C9.67379 14.9631 9.42874 14.7658 9.33168 14.4846L9.33151 14.4841C9.32949 14.4786 9.32777 14.4735 9.32603 14.4677L9.32617 14.4676L9.32513 14.4652L7.49283 10.1733M7.49283 10.1733C7.49295 10.1737 7.49307 10.1741 7.49319 10.1745L7.47077 10.1813M7.49283 10.1733C7.46895 10.0939 7.4662 10.0096 7.48487 9.92877C7.50363 9.84756 7.54336 9.77269 7.6001 9.71164L7.46204 9.92349C7.44235 10.0087 7.44536 10.0976 7.47077 10.1813M7.49283 10.1733L7.49232 10.1721L7.47077 10.1813" fill="black" stroke="#112211" stroke-width="0.046875"/>
</svg>
