<svg width="48" height="48" viewBox="0 0 48 48" fill="none" xmlns="http://www.w3.org/2000/svg">
<path d="M17.4947 43.5H14.999C14.7483 43.4999 14.5015 43.437 14.2814 43.3169C14.0612 43.1969 13.8747 43.0235 13.7388 42.8128C13.6029 42.602 13.5221 42.3606 13.5036 42.1105C13.4851 41.8604 13.5297 41.6097 13.6331 41.3812L19.6762 28.0453L10.6022 27.8438L7.29279 31.8534C6.66185 32.6466 6.15841 33 4.87404 33H3.19404C2.92804 33.0086 2.6639 32.9529 2.424 32.8377C2.1841 32.7224 1.97551 32.5511 1.81591 32.3381C1.59279 32.0372 1.37341 31.5272 1.58716 30.7997L3.44529 24.1434C3.45935 24.0938 3.47622 24.0441 3.49497 23.9953C3.49591 23.9907 3.49591 23.9859 3.49497 23.9813C3.47561 23.9325 3.45902 23.8828 3.44529 23.8322L1.58529 17.1337C1.38372 16.4203 1.60404 15.9216 1.82529 15.6281C1.97386 15.431 2.16661 15.2715 2.38805 15.1624C2.60949 15.0533 2.85344 14.9977 3.10029 15L4.87404 15C5.8331 15 6.76404 15.4303 7.31154 16.125L10.5525 20.0672L19.6762 19.9322L13.635 6.61969C13.5314 6.39136 13.4867 6.14071 13.505 5.89065C13.5233 5.6406 13.6039 5.39911 13.7396 5.18827C13.8753 4.97743 14.0616 4.80396 14.2817 4.68373C14.5017 4.56349 14.7483 4.50033 14.999 4.5L17.5218 4.5C17.8738 4.50707 18.2197 4.59334 18.5337 4.75239C18.8478 4.91145 19.1219 5.1392 19.3359 5.41875L31.0593 19.6688L36.4753 19.5262C36.8718 19.5047 37.9706 19.4972 38.2247 19.4972C43.4053 19.5 46.499 21.1819 46.499 24C46.499 24.8869 46.1447 26.5313 43.7737 27.5775C42.374 28.1963 40.5065 28.5094 38.2228 28.5094C37.9715 28.5094 36.8756 28.5019 36.4734 28.4803L31.0584 28.3359L19.3059 42.5859C19.0918 42.8643 18.8178 43.0909 18.5043 43.2491C18.1908 43.4073 17.8458 43.4931 17.4947 43.5Z" fill="#112211"/>
</svg>
