<svg width="16" height="16" viewBox="0 0 16 16" fill="none" xmlns="http://www.w3.org/2000/svg">
<g id="Paper Plane">
<path id="Vector" d="M13.9925 1.07162L13.9925 1.07164L1.49156 5.8032L1.48327 5.80634V5.80546C1.34617 5.85957 1.22872 5.95412 1.14657 6.07661C1.06324 6.20086 1.0203 6.34781 1.02362 6.49737C1.02693 6.64694 1.07633 6.79184 1.16507 6.91228C1.25378 7.03267 1.37747 7.12275 1.51927 7.17024C1.51933 7.17026 1.51939 7.17028 1.51945 7.1703L1.53191 7.17425L1.53408 7.17494L1.53403 7.17504L5.82347 9.00672C5.90288 9.0306 5.98716 9.03334 6.06797 9.01467C6.14919 8.99591 6.22406 8.95617 6.28512 8.89942L13.1708 2.48346C13.1709 2.48336 13.171 2.48326 13.1711 2.48316C13.1937 2.4606 13.2205 2.4427 13.25 2.43048C13.2797 2.41819 13.3115 2.41187 13.3436 2.41187C13.3757 2.41187 13.4075 2.41819 13.4371 2.43048C13.4668 2.44276 13.4937 2.46076 13.5164 2.48346C13.5391 2.50615 13.5571 2.5331 13.5694 2.56275C13.5817 2.5924 13.588 2.62418 13.588 2.65628C13.588 2.68838 13.5817 2.72016 13.5694 2.74981C13.5572 2.77934 13.5393 2.80617 13.5167 2.82881C13.5166 2.82891 13.5165 2.829 13.5164 2.8291L7.10012 9.71161L13.9925 1.07162ZM13.9925 1.07162C14.1235 1.02184 14.266 1.01095 14.4029 1.04027C14.5399 1.0696 14.6654 1.13787 14.7645 1.23688M13.9925 1.07162L14.7645 1.23688M14.7645 1.23688C14.8636 1.33635 14.9317 1.4624 14.9607 1.59977C14.9896 1.73715 14.9781 1.87998 14.9276 2.01097L14.9276 2.01111L10.1968 14.5082L14.7645 1.23688ZM9.46858 15H9.49983C9.65427 15.0009 9.80542 14.9553 9.9336 14.8691C10.0618 14.783 10.1611 14.6603 10.2186 14.5169L10.1967 14.5086L10.1967 14.5084C10.141 14.6473 10.0447 14.7662 9.92052 14.8497C9.79624 14.9332 9.64971 14.9774 9.49996 14.9766H9.49983H9.4691M9.46858 15L9.46963 14.9766C9.46945 14.9766 9.46928 14.9766 9.4691 14.9766M9.46858 15V14.9766H9.4691M9.46858 15C9.16264 14.9863 8.90952 14.7819 8.80952 14.4922C8.80733 14.4863 8.80545 14.4807 8.80358 14.4744L6.97077 10.1813M9.4691 14.9766C9.17379 14.9631 8.92874 14.7658 8.83168 14.4846L8.83151 14.4841C8.82949 14.4786 8.82777 14.4735 8.82603 14.4677L8.82617 14.4676L8.82513 14.4652L6.99283 10.1733M6.99283 10.1733C6.99295 10.1737 6.99307 10.1741 6.99319 10.1745L6.97077 10.1813M6.99283 10.1733C6.96895 10.0939 6.9662 10.0096 6.98487 9.92877C7.00363 9.84756 7.04336 9.77269 7.1001 9.71164L6.96204 9.92349C6.94235 10.0087 6.94536 10.0976 6.97077 10.1813M6.99283 10.1733L6.99232 10.1721L6.97077 10.1813" fill="black" stroke="#112211" stroke-width="0.046875"/>
</g>
</svg>
