<svg width="20" height="20" viewBox="0 0 20 20" fill="none" xmlns="http://www.w3.org/2000/svg">
<path d="M13.1866 13.9151L13.2024 13.924L13.215 13.9109C13.4455 13.6698 13.7225 13.478 14.0292 13.347C14.336 13.216 14.6661 13.1485 14.9996 13.1486C15.5168 13.1486 16.0211 13.3105 16.4417 13.6116C16.8622 13.9127 17.1779 14.338 17.3445 14.8277C17.511 15.3174 17.5201 15.8469 17.3704 16.342C17.2206 16.8371 16.9197 17.2729 16.5097 17.5883C16.0997 17.9036 15.6012 18.0826 15.0843 18.1003C14.5673 18.1179 14.0578 17.9733 13.6273 17.6866C13.1968 17.4 12.8668 16.9857 12.6837 16.502C12.5005 16.0182 12.4735 15.4893 12.6062 14.9894L12.6109 14.9718L12.5951 14.9629L6.81383 11.7102L6.798 11.7013L6.78543 11.7144C6.44333 12.0711 6.00234 12.3173 5.51918 12.4213C5.03602 12.5253 4.5328 12.4823 4.07425 12.298C3.6157 12.1136 3.22279 11.7963 2.94607 11.3868C2.66935 10.9773 2.52148 10.4944 2.52148 10.0002C2.52148 9.50595 2.66935 9.02303 2.94607 8.61353C3.22279 8.20404 3.6157 7.88671 4.07425 7.70235C4.5328 7.518 5.03602 7.47506 5.51918 7.57906C6.00234 7.68305 6.44333 7.92923 6.78543 8.28592L6.798 8.29903L6.81383 8.29013L12.5951 5.03739L12.6109 5.02848L12.6062 5.01093C12.4516 4.43047 12.5139 3.81355 12.7815 3.27574C13.0491 2.73794 13.5036 2.31615 14.0599 2.08939C14.6161 1.86263 15.236 1.84647 15.8033 2.04393C16.3706 2.24138 16.8465 2.63891 17.1418 3.16204C17.437 3.68517 17.5314 4.29801 17.4073 4.88574C17.2831 5.47347 16.9489 5.99577 16.4673 6.35479C15.9857 6.71381 15.3897 6.88492 14.791 6.83606C14.1923 6.7872 13.6319 6.52172 13.2149 6.08937L13.2023 6.07633L13.1866 6.08521L7.4053 9.33795L7.38947 9.34685L7.39415 9.3644C7.50508 9.78099 7.50508 10.2193 7.39415 10.6359L7.38947 10.6535L7.4053 10.6624L13.1866 13.9151Z" fill="black" stroke="#112211" stroke-width="0.046875"/>
</svg>
