<svg width="111" height="37" viewBox="0 0 111 37" fill="none" xmlns="http://www.w3.org/2000/svg">
<path d="M14.7282 6.07666L17.9466 8.5081L15.9805 11.0097C17.3379 12.5456 17.8382 14.2983 17.8382 16.2294C17.8382 18.4091 17.0161 21.4843 14.1195 22.8068C17.0512 24.2726 17.7649 26.3822 17.7649 28.6352C17.7649 33.4981 14.0463 36.5 8.93505 36.5C3.82384 36.5 0 33.3898 0 28.6352H4.32413C4.32413 30.9233 6.43362 32.4242 8.93505 32.4242C11.4365 32.4242 13.4026 31.0667 13.4026 28.6352C13.4026 26.2038 11.1146 25.0948 8.93505 25.0948C3.4319 25.0948 0 21.736 0 16.2294C0 10.7228 4.00229 7.29079 8.93823 7.29079C10.3339 7.29079 11.7615 7.46924 12.9788 8.29141L14.7282 6.07666ZM4.32413 16.2294C4.32413 19.3046 6.39857 21.1274 8.93505 21.1274C11.4365 21.1274 13.5109 19.2695 13.5109 16.2294C13.5109 13.1893 11.4397 11.2614 8.93823 11.2614C6.39856 11.2614 4.32413 13.1543 4.32413 16.2294Z" fill="#112211"/>
<path d="M50.5663 0.5V25.49H46.2422V0.5H50.5663Z" fill="#112211"/>
<path d="M69.9987 16.6945C69.9987 21.7709 66.5317 25.8818 60.8119 25.8818C55.0921 25.8818 51.6602 21.7709 51.6602 16.6945C51.6602 11.6532 55.1622 7.50732 60.7768 7.50732C66.3915 7.50732 69.9987 11.6532 69.9987 16.6945ZM56.0193 16.6945C56.0193 19.3745 57.6285 21.8793 60.8087 21.8793C63.9889 21.8793 65.5981 19.3777 65.5981 16.6945C65.5981 14.0496 63.7403 11.4747 60.8087 11.4747C57.6636 11.4747 56.0193 14.0496 56.0193 16.6945Z" fill="#112211"/>
<path d="M75.4503 0.5V10.2608C76.4859 8.43804 79.3824 7.43742 81.2402 7.43742C86.3865 7.43742 90.2135 10.5827 90.2135 16.6597C90.2135 22.4499 86.3163 25.882 81.135 25.882C78.9905 25.882 76.8109 25.1681 75.4503 23.0586L75.1635 25.49H71.0879V0.5H75.4503ZM75.7339 16.6597C75.7339 19.84 78.0919 21.8444 80.8451 21.8444C83.6333 21.8444 85.8511 19.7348 85.8511 16.6597C85.8511 13.4794 83.6333 11.5132 80.8451 11.5132C78.0951 11.51 75.7339 13.5845 75.7339 16.6597Z" fill="#112211"/>
<path d="M96.6992 19.7315C97.7125 21.6818 100.032 22.5135 102.922 21.4619C104.433 20.9106 106.208 19.62 106.794 18.3039L110.357 19.9355C109.27 22.386 106.734 24.298 104.213 25.2158C98.5028 27.2935 93.8249 25.0023 91.8939 19.6933C90.0584 14.6551 92.1647 9.77948 97.5404 7.82286C103.082 5.80568 107.792 7.97263 109.633 15.0248L96.6992 19.7315ZM104.468 13.0618C103.416 11.0095 101.345 10.5475 98.9935 11.4015C96.7757 12.2077 95.3545 13.9445 95.5329 16.3122L104.468 13.0618Z" fill="#112211"/>
<path fill-rule="evenodd" clip-rule="evenodd" d="M39.7626 12.4896C38.3489 9.54005 35.4017 7.50732 31.4702 7.50732C25.8555 7.50732 22.3535 11.6532 22.3535 16.6945C22.3535 19.913 23.733 22.7434 26.2006 24.3841C26.3412 24.2788 26.4258 24.2105 26.4258 24.2105C27.6566 23.4075 28.8573 22.5621 30.0258 21.6763C27.8244 21.0285 26.7127 18.922 26.7127 16.6945C26.7127 14.0496 28.3601 11.4747 31.5021 11.4747C34.269 11.4747 36.0793 13.7684 36.274 16.2499C37.4868 15.0462 38.6507 13.7918 39.7626 12.4896ZM31.0601 25.8733C34.5418 23.4055 37.7611 20.5864 40.6652 17.4628C40.3328 22.1793 36.9335 25.8818 31.5052 25.8818C31.3553 25.8818 31.2069 25.8789 31.0601 25.8733Z" fill="#8DD3BB"/>
<path d="M43.3169 5.03767C38.8622 3.39971 35.6597 6.92418 35.6597 6.92418L38.6965 8.68961C39.8341 8.03634 40.3407 8.67049 40.4714 9.01784C40.5638 9.26321 40.4395 9.53089 40.3407 9.67748L39.6014 10.6112C35.6119 15.4231 30.9213 19.604 25.6858 23.0201C25.6858 23.0201 24.1053 24.2948 23.2641 24.3139C22.5567 24.3299 22.2412 23.734 22.8371 22.8799L21.3713 19.5721C21.3713 19.5721 17.557 22.0705 18.2963 26.4618C18.6085 28.3164 20.3516 29.6357 22.203 29.3011C23.1494 29.1322 24.3188 28.6701 25.7496 27.7237L28.3816 26.0029C33.6171 22.5804 38.3109 18.3867 42.2973 13.5684L43.2022 12.4754C44.5661 10.9235 45.1779 9.64561 45.385 8.63543C45.7037 7.08989 44.7891 5.5794 43.3169 5.03767Z" fill="#8DD3BB"/>
</svg>
